<svg xmlns="http://www.w3.org/2000/svg" width="1100" height="170" viewBox="0 0 1100 170">
<style>text{font-family:Arial,sans-serif;fill:#111}.box{fill:#f6f6f6;stroke:#222;stroke-width:2}.arrow{stroke:#222;stroke-width:2;fill:none;marker-end:url(#a)}.small{font-size:13px}.title{font-size:15px;font-weight:bold}</style>
<defs><marker id="a" markerWidth="10" markerHeight="10" refX="8" refY="3" orient="auto"><path d="M0,0 L0,6 L9,3 z" fill="#222"/></marker></defs>
<rect class="box" x="20" y="55" width="130" height="60" rx="8"/><text x="85" y="80" text-anchor="middle" class="title">RTL</text><text x="85" y="99" text-anchor="middle" class="small">Verilog</text>
<path class="arrow" d="M150 85 H185"/>
<rect class="box" x="185" y="55" width="150" height="60" rx="8"/><text x="260" y="80" text-anchor="middle" class="title">Genus</text><text x="260" y="99" text-anchor="middle" class="small">Synthesis / PPA</text>
<path class="arrow" d="M335 85 H370"/>
<rect class="box" x="370" y="55" width="150" height="60" rx="8"/><text x="445" y="80" text-anchor="middle" class="title">Floorplan</text><text x="445" y="99" text-anchor="middle" class="small">Power / IO / macros</text>
<path class="arrow" d="M520 85 H555"/>
<rect class="box" x="555" y="55" width="130" height="60" rx="8"/><text x="620" y="80" text-anchor="middle" class="title">Placement</text><text x="620" y="99" text-anchor="middle" class="small">Optimization</text>
<path class="arrow" d="M685 85 H720"/>
<rect class="box" x="720" y="55" width="110" height="60" rx="8"/><text x="775" y="80" text-anchor="middle" class="title">CTS</text><text x="775" y="99" text-anchor="middle" class="small">ccopt</text>
<path class="arrow" d="M830 85 H865"/>
<rect class="box" x="865" y="55" width="110" height="60" rx="8"/><text x="920" y="80" text-anchor="middle" class="title">Route</text><text x="920" y="99" text-anchor="middle" class="small">Post-route opt</text>
<path class="arrow" d="M975 85 H1010"/>
<rect class="box" x="1010" y="55" width="75" height="60" rx="8"/><text x="1047" y="80" text-anchor="middle" class="title">GDS</text><text x="1047" y="99" text-anchor="middle" class="small">Signoff</text>
</svg>
